<?xml version="1.0" encoding="utf-8"?>
<!-- Generator: Adobe Illustrator 22.1.0, SVG Export Plug-In . SVG Version: 6.00 Build 0)  -->
<svg version="1.1" id="Слой_1" xmlns="http://www.w3.org/2000/svg" xmlns:xlink="http://www.w3.org/1999/xlink" x="0px" y="0px"
	 viewBox="0 0 1920 1080" style="enable-background:new 0 0 1920 1080;" xml:space="preserve">
<g>
	<g>
		<path d="M961.3,952.5c-13.3,0.7-26.5-0.9-39.8-1c-8.1,0-16.3-1-24.4-1.5c-5.1-0.4-10.2-0.7-15.3-1.2c-8.4-0.8-16.9-1.6-25.3-2.6
			c-7.8-0.9-15.5-2-23.3-3c-16-2.2-31.9-5-47.7-8.2c-22.3-4.5-44.3-10-66.1-16.3c-16-4.7-31.7-10-47.4-15.6
			c-12.6-4.6-25.1-9.6-37.5-14.9c-16.2-6.9-32.1-14.5-47.6-22.7c-11.2-5.9-22.2-12.1-32.9-18.8c-11.7-7.2-23.2-14.8-34.4-22.8
			c-9.6-6.9-19-14.1-28.1-21.7c-6.7-5.5-13.2-11.2-19.5-17c-5.9-5.4-11.8-10.8-17.3-16.6c-5.4-5.7-10.5-11.6-15.8-17.4
			c-7-7.7-13.4-15.9-19.6-24.3c-9.5-12.7-17.8-26.1-25.6-40c-6.4-11.3-11.7-23.1-16.5-35.1c-7.6-18.9-13-38.5-16.3-58.6
			c-2-12.1-3.5-24.4-3.3-36.7c0-1.9-0.2-3.8-0.3-5.7c-0.1-1.9,0.6-2.7,2.3-3.2c1.2-0.3,2.8,0.2,3.6-1c1-1.5,0.3-3.1-0.1-4.6
			c-1.5-6.7-2.4-13.5-3.2-20.4c-0.5-4.6-0.4-9.3-1-13.9c-0.1-0.9,0.1-1.9,0.2-2.8c0.2-1.2,1-2,2.2-2.2c1.1-0.2,2.2-0.2,3.3-0.2
			c1.7,0.1,2.5,1,2.8,2.8c0.1,0.8,0.1,1.6,0.1,2.4c0.5,11.4,1.6,22.6,4,33.8c2.8,12.9,6.8,25.3,12,37.4
			c8.8,20.6,20.7,39.3,34.8,56.7c9.1,11.2,18.7,21.9,29.2,31.7c12.5,11.7,25.7,22.6,39.6,32.6c15.3,11.1,31.2,21.2,47.6,30.6
			c13.5,7.8,27.3,14.8,41.3,21.4c16.2,7.7,32.7,14.5,49.5,20.9c13.3,5.1,26.8,9.7,40.3,14c21.8,7,43.9,13,66.2,18.1
			c13.6,3.1,27.2,5.9,40.9,8.5c13.7,2.6,27.4,4.8,41.2,6.7c8.6,1.1,17.1,2.5,25.7,3.4c9.7,1,19.3,2.7,29.1,2.2
			c10.5-0.6,21-1.6,31.4-3.7c8.8-1.8,17.4-4.3,25.7-7.8c6.7-2.8,13-6.2,18.7-10.7c4.5-3.5,8.1-7.7,10.6-12.8c1-2.1,1.5-4.2,1.6-6.5
			c0.8-15.5-2.4-30.1-9.2-44.1c-5.9-12.2-14-22.6-24.1-31.3c-9-7.8-19.3-13.6-30.6-17.6c-9-3.2-18.2-5-27.7-5.2
			c-4.1-0.1-5.9-2.8-7.8-5.4c-0.9-1.1-0.5-2.8-0.4-4.2c0.7-5.6,1.9-11,4.1-16.2c5.1-11.7,13-21.1,23.1-28.9
			c14.3-11.1,30.7-17.6,48.3-21.3c12.4-2.6,25-3.6,37.7-2.7c16,1.1,31.6,4.3,46.5,11c7,3.1,13.7,6.9,20,11.4
			c10.2,7.3,18.4,16.3,24,27.6c3,6.1,4.5,12.6,5.6,19.3c0.4,2.7,0.1,5.1-2.8,6.5c-1.3,2.7-3.7,3-6.4,3.2c-15.3,0.8-29.6,5-42.9,12.6
			c-17.4,10.1-30.4,24.3-39.2,42.3c-4.7,9.7-7.7,20-8.6,30.8c-0.2,2.9-0.7,5.7-0.8,8.6c-0.2,6.7,2.3,12.5,6.7,17.5
			c4.7,5.3,10.5,9.3,16.8,12.6c9.2,4.9,19.1,8.2,29.2,10.6c6.5,1.5,13.1,2.9,19.8,3.5c8.6,0.9,17.2,1.8,25.8,1.3
			c3.5-0.2,7-0.6,10.5-1c21.9-2.5,43.8-5.3,65.5-9.1c19.9-3.5,39.6-7.5,59.2-12.2c18.4-4.4,36.5-9.5,54.6-15
			c23.8-7.2,47-15.9,69.9-25.4c7.7-3.2,15.2-6.7,22.8-10.2c5.8-2.7,11.6-5.3,17.3-8.2c15.9-8.2,31.6-16.9,46.8-26.4
			c15.8-9.9,30.8-20.7,45.3-32.3c8-6.4,15.7-13.1,22.8-20.5c4-4.1,8.2-8.1,12.2-12.2c9.2-9.4,17.4-19.6,25.1-30.2
			c8.5-11.7,15.7-24.1,22-37.1c4.9-10.1,8.7-20.6,11.9-31.4c3.3-10.9,5.2-22.1,6.5-33.4c0.4-3.5,0.2-7,0.4-10.5
			c0.1-1.8,0.2-3.5,0.5-5.2c0.4-2,1.4-2.7,3.3-2.9c0.6-0.1,1.3,0,1.9,0c1.8,0.2,2.7,1,2.9,2.7c0.1,1.1,0.1,2.2,0.1,3.4
			c0.1,8.8-1.2,17.5-2.5,26.2c-0.4,3-1.1,6-1.7,9c-0.5,2.4-0.5,2.7,1.8,3.7c1.7,0.8,2.4,2,2.3,3.8c-0.1,5.9,0.2,11.8-0.5,17.7
			c-0.7,6.3-1.3,12.7-2.2,19.1c-1.6,12.1-4.3,23.9-7.5,35.7c-6.1,22-15,42.9-25.8,62.9c-9.1,16.9-19.8,32.9-31.6,48.1
			c-4.7,6.1-9.8,11.8-14.7,17.7c-4.1,4.9-8.7,9.4-13.1,14c-1.8,1.9-3.2,4.1-5.1,5.7c-7.2,6.1-13.6,13.1-20.7,19.3
			c-7.7,6.7-15.6,13.2-23.6,19.6c-7.5,6-15.2,11.7-23.1,17.1c-12,8.2-24.1,16.3-36.8,23.6c-7.2,4.2-14.3,8.4-21.8,12.2
			c-6.7,3.4-13.3,7.1-20,10.4c-19.5,9.4-39.2,18.1-59.4,25.7c-12.7,4.8-25.6,9.2-38.5,13.4c-21.3,6.9-43,12.6-64.8,17.6
			c-20.6,4.8-41.4,8.5-62.2,11.8c-11.2,1.8-22.5,3.2-33.8,4.3c-8.3,0.8-16.5,1.8-24.8,2.5c-6.2,0.5-12.4,0.8-18.7,1.2
			c-10.1,0.6-20.1,0.7-30.2,1.3C978.3,952.5,969.8,952.4,961.3,952.5z M961.3,750.9c1.5-1.6,1.7-3.1,2.2-4.4
			c2.8-7.7,6.4-15,10.9-21.9c6.1-9.3,13.3-17.6,22.1-24.4c6.1-4.7,12.4-9.1,19.4-12.4c11.5-5.5,23.5-9.2,36.3-10.1
			c1.1-0.1,2.2-0.3,3.3-0.7c1.4-0.5,2-1.5,1.8-3c0-0.5-0.1-0.9-0.2-1.4c-1.9-8.8-5.7-16.7-11.5-23.5c-7.3-8.6-16.1-15.5-26.2-20.6
			c-14.5-7.3-29.8-11.6-45.9-12.7c-13.4-0.9-26.8-0.5-40.1,2.4c-17.6,3.9-33.7,10.7-47.6,22.5c-6.4,5.5-11.4,12-15.4,19.4
			c-2.2,4.1-3.5,8.6-4.3,13.2c-0.4,2.2,0.4,3.4,2.5,3.9c0.8,0.2,1.6,0.4,2.4,0.4c4.5,0.1,8.9,1.1,13.3,2.1c13.5,3,25.8,8.6,37,16.5
			c7.1,5,13.6,10.6,19.2,17.3c6.7,8,12.4,16.6,16.6,26.3C958.4,743.3,959.7,746.9,961.3,750.9z M965.7,872.7c0,20.3,0,40.6,0,60.9
			c0,1.1,0,2.2,0,3.4c0,6.8,0,6.8,7.1,6.8c1.1,0,2.2,0,3.4,0c11.5-0.4,23-0.7,34.5-1.1c0.6,0,1.3-0.1,1.9-0.2
			c6.8-0.5,13.7-1.1,20.5-1.6c5.3-0.4,10.5-0.8,15.8-1.2c2.5-0.2,5.1-0.5,7.6-0.8c2.5-0.3,5.1-0.7,7.6-1.1c0.9-0.1,1.4-0.8,1.3-1.7
			c0-0.6-0.1-1.3-0.3-1.9c-1.2-6.4-2.3-12.9-2.9-19.4c-0.4-3.7-0.6-7.3-0.9-11c-0.5-6.2-1.4-12.4-1.5-18.6
			c-0.3-14.4-1.6-28.7-1.1-43.1c0-0.8,0-1.6,0-2.4c0-0.6,0-1.3-0.1-1.9c-0.2-2.2-0.8-2.9-2.9-3.2c-2.7-0.4-5.4-0.8-8.1-0.9
			c-5-0.1-9.9-0.7-14.8-1.5c-14.7-2.3-29.2-5.7-42.8-12.1c-7.3-3.4-14.2-7.4-19.9-13.1c-0.9-0.9-1.9-1.8-2.8-2.6
			c-0.5-0.4-1.3,0-1.4,0.7c-0.1,1.4-0.1,2.9-0.1,4.3C965.7,830.5,965.7,851.6,965.7,872.7z M957.6,874.3c0-20.3,0-40.6,0-60.9
			c0-1.6,0-3.2-0.1-4.8c-0.1-0.9-0.3-1.9-0.6-2.8c-0.2-0.7-0.8-1-1.5-0.6c-0.7,0.4-1.3,1-1.8,1.5c-5.4,5.4-11.8,9.3-18.6,12.6
			c-9.9,4.8-20.4,8.3-31.3,10.5c-9.7,2-19.5,3.6-29.4,3.9c-1.9,0-3.8,0.4-5.7,0.8c-1.9,0.4-2.5,1.1-2.7,2.8
			c-0.1,0.6-0.1,1.3-0.1,1.9c-0.1,12.6,0.1,25.2-0.9,37.8c-0.3,4.1,0.2,8.4-0.4,12.5c-0.9,6.7-0.7,13.4-1.5,20.1
			c-0.8,6.3-1.2,12.7-2.1,19c-0.3,2.2-0.8,4.4-1.1,6.6c-0.3,1.8,0.1,2.3,1.8,2.8c3,0.8,6,0.7,9,1.1c12.2,1.4,24.5,2.5,36.8,2.8
			c0.3,0,0.6,0,1,0.1c9,1.5,18.2,0.5,27.3,1.5c5,0.6,10.2,0.2,15.3,0.2c6.6,0,6.7,0,6.7-6.7C957.6,916.2,957.6,895.3,957.6,874.3z
			 M856.9,855.9c0,0,0.1,0,0.1,0c0-0.6,0-1.3,0-1.9c0-5.3,0.1-10.6,0-15.8c-0.1-3.7-0.5-4.2-4-4.6c-7.6-0.9-15.2-1.8-22.8-2.8
			c-8.6-1.1-17.1-2.1-25.6-3.5c-11.2-1.8-22.4-3.8-33.6-5.7c-0.8-0.1-1.6-0.3-2.4-0.3c-1.3,0-2.2,0.7-2.4,1.9
			c-0.2,0.9-0.2,1.9-0.2,2.9c-0.1,7.5-0.1,15-0.7,22.5c-0.6,7-0.4,14-1,21.1c-0.8,9.1-1.7,18.1-3.2,27.1c-1,5.8-2.3,11.6-5,17
			c-2.5,5.2-2.1,5.3,3.1,6.6c13.4,3.2,26.8,6.2,40.3,8.7c15.4,2.8,30.9,5.2,46.4,7.4c4.9,0.7,5-0.7,5.9-4.1c0.1-0.3,0.1-0.6,0.2-0.9
			c0.9-5.8,1.7-11.7,2.2-17.6c0.5-5.3,0.6-10.5,1.2-15.8c1-9.7,0.6-19.5,1.5-29.2C857.2,864.6,856.9,860.3,856.9,855.9z
			 M1067.3,854.7c-0.5,11.7,1.2,23.3,1.1,35c0,0.5,0,1,0.1,1.4c0.9,9.4,1.7,18.8,2.7,28.1c0.5,4.6,1.4,9.2,2.3,13.7
			c0.5,2.5,1.6,3.2,4.1,3.2c1.6,0,3.2-0.2,4.8-0.4c9.5-1.4,19-2.8,28.4-4.4c17.3-2.9,34.6-6.4,51.7-10.5c1.2-0.3,2.5-0.7,3.7-1.1
			c0.9-0.3,1.2-1,1.1-1.9c-0.1-0.6-0.3-1.2-0.5-1.8c-3.4-9.2-5.2-18.8-6.5-28.5c-0.9-6.8-1.6-13.6-2.2-20.5
			c-0.6-7.3-1.2-14.6-1.6-22c-0.3-6.5-0.1-13.1-0.2-19.7c-0.1-3.5-0.5-3.8-4-3.2c-15.3,2.6-30.6,5.2-45.9,7.2
			c-9.5,1.2-19,2.7-28.6,3.4c-2.5,0.2-5.1,0.6-7.6,1c-1.8,0.3-2.6,1-2.8,2.8c-0.1,1.1-0.1,2.2-0.1,3.4
			C1067.3,844.8,1067.3,849.7,1067.3,854.7z M757.1,836.5c0-3.8,0-7.7,0-11.5c0-5.6-0.2-5.8-5.6-7c-13.9-3-27.8-6.1-41.6-9.7
			c-3.7-1-7.4-2.1-11.1-3c-2.7-0.6-3.5,0.1-3.8,2.7c0,0.3,0,0.6,0,1c-0.1,7-1,14-1.8,21c-1.5,12.3-4.2,24.3-8.6,35.9
			c-3.3,8.7-7.3,17.1-14.3,23.6c-0.4,0.3-0.7,0.7-1,1.1c-0.7,0.9-0.6,1.9,0.4,2.4c1.1,0.6,2.3,1.1,3.5,1.6c4.7,1.7,9.3,3.5,14,5
			c9.3,3.1,18.5,6.1,27.9,9c7.3,2.3,14.8,4.3,22.1,6.4c1.4,0.4,2.8,0.7,4.2,1c1.9,0.3,3.5-0.3,4.7-1.7c0.8-1,1.6-2.1,2.1-3.2
			c0.9-2.1,1.6-4.2,2.2-6.3c3.7-13,4.9-26.4,5.6-39.8C756.4,855.3,757.7,845.9,757.1,836.5z M1222.3,806.4c-1.1,0.2-2.5,0.5-3.9,0.9
			c-10.5,2.9-21.1,5.3-31.7,7.7c-6.1,1.4-12.2,2.6-18.3,4c-3.6,0.8-4,1.3-4.1,4.7c-0.1,3.2-0.1,6.4,0.2,9.6c0.4,3.5,0.5,7,0.6,10.5
			c0.1,3.7,0,7.4,0.3,11c0.8,9.1,1.7,18.1,2.7,27.2c1,9.1,2.5,18,5.1,26.8c0.6,2,1.4,3.9,2.3,5.8c1,1.9,1.9,2.3,3.9,1.9
			c1.3-0.2,2.5-0.6,3.7-0.9c16.5-4.4,32.9-9.4,49.1-14.8c3.6-1.2,7.2-2.6,10.8-3.9c1.8-0.7,2.1-1.5,1-2.8
			c-5.1-6.4-7.9-13.8-10.3-21.5c-3.7-11.9-5.7-24.2-7.2-36.6c-0.5-4.3-0.8-8.6-1.1-12.9c-0.4-4.8-0.6-9.6-1-14.3
			c0-0.3-0.1-0.6-0.2-0.9C1224.2,806.9,1223.6,806.5,1222.3,806.4z M1233.4,812.1c-0.1,0-0.2,0-0.2,0c0.7,7.5,1.4,14.9,2,22.4
			c1,11.2,3,22.2,6,33c1.5,5.4,3.3,10.7,6,15.6c1.3,2.4,2.7,4.7,4.6,6.7c1.7,1.8,3.7,2.5,6.1,1.6c1.9-0.7,3.9-1.4,5.9-2.1
			c13.1-5.2,26-10.7,38.8-16.5c3.3-1.5,6.6-3.2,9.9-4.9c2.1-1.1,2.2-2,0.8-3.7c-0.4-0.5-0.9-0.9-1.3-1.4c-4.4-4.1-7.3-9.3-9.7-14.7
			c-6.8-15.4-9.8-31.7-11.3-48.3c-0.3-3.8-0.6-7.6-1-11.5c-0.2-1.7-1-2.2-2.6-1.8c-1.2,0.3-2.4,0.7-3.7,1.1
			c-11.8,3.9-23.6,8.1-35.6,11.5c-3.5,1-7.1,2-10.6,3.2c-3.7,1.2-3.9,1.5-4,5.5C1233.4,809.2,1233.4,810.6,1233.4,812.1z
			 M1345.9,762.7c-0.4,0.1-1,0.3-1.6,0.6c-2.3,1-4.6,2.1-7,3.2c-11.3,5-22.7,9.6-34.2,14c-3.3,1.3-5,3.2-4.5,6.8c0.1,0.5,0,1,0,1.4
			c0.1,10.6,1.6,21,3.6,31.4c2,10.1,5,19.8,9.9,28.9c1.9,3.6,4.2,6.8,7.2,9.5c2.8,2.6,5.7,3.4,9.1,1.3c0.5-0.3,1.1-0.6,1.7-0.9
			c13.4-6.9,26.3-14.5,39.1-22.4c1.4-0.8,2.7-1.7,4-2.6c1.2-0.8,1.2-1.6,0-2.7c-0.1-0.1-0.3-0.2-0.4-0.3
			c-7.3-5.2-11.9-12.3-15.4-20.4c-5.3-12.3-8-25.3-9.2-38.6c-0.2-2.7-0.6-5.4-1-8.1C1347.3,763.2,1346.9,762.8,1345.9,762.7z
			 M686.2,812.4c0-1.5,0-2.8,0-4.1c0-6.3-0.1-6.4-6.2-8.3c-10.8-3.4-21.6-6.8-32.5-10.2c-0.8-0.2-1.5-0.5-2.3-0.7
			c-1.9-0.4-2.8,0.2-2.9,2.1c-0.2,3.8-0.6,7.6-1,11.4c-1.4,12.5-4.2,24.6-9.2,36.1c-4.4,10-9.7,19.4-18.9,26
			c-2.9,2.1-2.7,2.8,0.6,4.6c0.8,0.5,1.7,0.9,2.6,1.3c4.3,2,8.7,4,13,6c7.9,3.6,15.8,6.9,23.8,10.2c3.4,1.4,6.2,0.7,9-1.2
			c2.2-1.6,4.1-3.6,5.7-5.8c3.1-4.3,5.6-8.9,7.7-13.8c3.2-7.7,5.4-15.7,7-23.9C684.5,832.2,685.9,822.3,686.2,812.4z M633.9,788.4
			c0.2-2.5-0.3-3.2-2.8-4.3c-0.6-0.2-1.2-0.4-1.8-0.7c-10.7-4.1-21.5-8.2-32-12.8c-1.8-0.8-3.5-1.5-5.3-2.2c-1.6-0.6-2.4,0-2.6,1.7
			c-0.2,2.2-0.1,4.5-0.4,6.7c-1.5,11.9-4.1,23.6-9.2,34.6c-4.8,10.1-10.8,19.2-20.6,25.2c-0.4,0.2-0.8,0.5-1.1,0.9
			c-0.5,0.6-0.4,1.2,0.1,1.7c0.6,0.5,1.2,1,1.9,1.4c8.6,4.9,17.1,9.9,25.8,14.8c3.2,1.8,6.5,3.3,9.8,5c2.6,1.3,5.2,1.3,7.9,0.1
			c1.9-0.9,3.8-1.7,5.4-3.1c3.6-3.2,7-6.5,9.5-10.7c3.2-5.2,5.7-10.7,7.8-16.4C631.2,816.7,633.2,802.6,633.9,788.4z M536.3,745.8
			c0.1-4.2-0.2-4.7-3.2-6.5c-0.3-0.2-0.6-0.3-0.8-0.5c-12.4-7.1-24.5-14.4-36.3-22.4c-0.7-0.4-1.3-0.9-2-1.3c-1.7-1-2.8-0.5-3.2,1.3
			c-0.2,0.9-0.3,1.9-0.5,2.8c-1.8,9.9-6,18.9-12.1,26.8c-4.4,5.7-10.1,9.7-16.7,12.5c-2.2,1-2.3,1.7-0.7,3.5
			c0.7,0.8,1.5,1.6,2.3,2.4c7.3,7.1,14.3,14.6,22.1,21.2c4.5,3.8,9,7.6,13.5,11.5c1.7,1.5,3.7,1.9,5.8,1.4c2.7-0.5,5.2-1.6,7.5-3
			c4.4-2.7,8-6.3,11.1-10.5c3.4-4.5,5.8-9.6,7.8-14.8C534.1,762.2,535.4,753.7,536.3,745.8z M1383.4,826c1.2,0.2,2.3-0.1,3.2-0.7
			c0.7-0.4,1.3-0.9,2-1.3c12.1-8.3,23.8-17.2,35.3-26.3c1-0.8,1.9-1.7,2.7-2.7c0.6-0.7,0.4-1.6-0.3-2.1c-2.1-1.2-4.2-2.2-6.2-3.6
			c-6.8-4.5-11.8-10.7-15.7-17.8c-4.8-8.8-7.8-18.2-9.1-28.1c-0.2-1.3-0.5-2.5-0.8-3.7c-0.3-1-1-1.1-1.9-0.8
			c-0.7,0.3-1.4,0.7-2.1,1.1c-9.9,5.6-20.1,10.6-30.2,15.6c-0.6,0.3-1.1,0.6-1.7,0.9c-1.6,0.8-2.3,2.2-2.3,3.9c0,1,0,1.9,0,2.9
			c-0.2,4,0.6,8,1,11.9c1,10.6,3.6,20.8,7.4,30.6c1.1,2.8,2.6,5.5,4,8.2c1.7,3.1,3.9,5.8,6.6,8.2
			C1377.7,824.3,1380.4,825.6,1383.4,826z M581.2,768.4c0.5-3.2-0.5-5.2-3.3-6.3c-0.3-0.1-0.6-0.3-0.9-0.4
			c-9.4-4.8-19.3-8.6-28.3-14.1c-0.3-0.2-0.6-0.3-0.9-0.4c-2-0.8-3.1-0.2-3.5,1.8c-0.1,0.6-0.1,1.3-0.2,1.9
			c-1.2,11.2-4.3,21.9-9.7,31.9c-5.1,9.3-11.8,17-21.6,21.8c-0.6,0.3-1.1,0.6-1.6,1c-0.4,0.3-0.4,0.9-0.1,1.3
			c0.4,0.5,0.9,0.9,1.4,1.3c10,7.7,20.4,14.8,31,21.8c2.5,1.7,5,1.8,7.8,1c3.4-1.1,6.4-3,8.9-5.5c4.1-3.9,7.3-8.4,9.9-13.4
			C577.4,798.3,580.1,783.5,581.2,768.4z M1403.4,737.9c0.2,6.6,1.8,13,3.8,19.2c2.1,6.8,5.5,12.9,10,18.4
			c4.1,5.1,9.4,8.6,15.7,10.4c2.5,0.7,4.6,0.3,6.6-1.6c2.5-2.4,5.3-4.6,7.8-7c6.8-6.7,13.6-13.5,20.4-20.3c4.2-4.2,4.1-4.3-1.5-6.3
			c-7.4-2.6-13.6-7-18.8-12.8c-5.2-6-8.9-12.8-10.7-20.6c-0.3-1.2-0.6-2.5-1.1-3.7c-0.2-0.7-0.9-0.9-1.6-0.6c-0.8,0.4-1.7,1-2.5,1.5
			c-7.1,4.6-14.2,9.2-21.3,13.8c-1.5,1-3,1.8-4.5,2.8c-1.6,1-2.5,2.4-2.5,4.4C1403.3,736.3,1403.4,737.1,1403.4,737.9z M482.6,713.2
			c0.1-5.7-0.1-6.2-3.5-8.8c-7.5-5.7-15-11.4-22-17.7c-3-2.7-6-5.3-9.1-7.8c-3-2.4-3.3-2.3-4.4,1.2c-0.2,0.6-0.3,1.2-0.5,1.8
			c-3.5,10.8-9.9,19.4-20.2,24.4c-5.5,2.7-5.7,2.5-2.1,7.7c8.6,12.5,18.1,24.3,28.2,35.6c1.6,1.8,3.4,2.3,5.6,1.8
			c1.5-0.4,3.1-0.8,4.6-1.4c5.5-2.4,10-6,13.7-10.9C478.8,731,481.6,721.7,482.6,713.2z M1475.2,744.1c2.7,0.1,3.7-0.3,5.5-2
			c1.3-1.2,2.5-2.5,3.6-3.9c7.1-8.8,13.9-17.9,20.4-27.2c0.9-1.3,1.8-2.6,2.6-4c1.1-1.9,0.9-2.6-1.1-3.1c-1.5-0.4-3.1-0.6-4.7-1
			c-10.9-2.7-20.3-7.6-26.6-17.3c-0.2-0.3-0.4-0.5-0.5-0.8c-1-1.3-2-1.5-3.3-0.7c-0.7,0.4-1.3,1-1.9,1.5c-1.6,1.3-3.1,2.8-4.7,4.1
			c-6,4.8-12,9.6-18.1,14.2c-2.2,1.7-3,3.6-2.5,6.2c0.5,2.3,0.9,4.7,1.6,7c3.7,11.4,10.8,19.8,21.7,24.9
			C1469.8,743.3,1472.6,743.9,1475.2,744.1z M436.6,671.6c0.1-2.2-0.6-4.1-2.2-5.7c-1-1-2-2.1-3-3.1c-5.3-5.1-10.1-10.6-14.8-16.3
			c-3.7-4.5-3.8-4.5-6.3,0.8c-3.3,7.1-8.3,12.4-15.5,15.6c-0.4,0.2-0.9,0.4-1.3,0.6c-0.8,0.5-1.1,1.2-0.8,2c0.2,0.6,0.5,1.2,0.7,1.8
			c4.4,8.9,8.7,17.8,13.9,26.2c1.1,1.8,2.2,3.5,3.3,5.3c1,1.6,2.4,2,4.1,1.5c3.7-1.2,7.1-2.8,10.1-5.3c5.6-4.9,9-11.1,10.8-18.3
			C436,675,436.3,673.3,436.6,671.6z M1556.6,564.9c-0.2,0-0.4-0.1-0.6-0.1c-0.2,0.4-0.5,0.8-0.7,1.2c-4.5,12.7-9.8,25-16.4,36.7
			c-5,8.9-10.5,17.5-16.5,25.8c-3.8,5.2-7.7,10.2-11.6,15.2c-1.7,2.2-2,3.7,0.6,6.2c0.8,0.8,1.8,1.4,2.7,2
			c5.3,3.6,11.5,4.6,17.7,5.5c1.4,0.2,2.5-0.5,3.1-1.8c0.4-0.9,0.8-1.7,1.2-2.6c4.7-11.4,8.7-23,11.9-34.9c4.4-16.1,7-32.5,8.6-49
			C1556.8,567.8,1556.6,566.3,1556.6,564.9z M366.2,556.2c-0.8,0.8-0.3,1.7-0.3,2.6c0.1,1.6,0.5,3.2,0.6,4.8
			c0.1,9.6,1.5,19.1,3,28.6c3.3,20.6,9.2,40.5,17,59.9c1.6,4,2.9,4.2,6.5,2.4c2-1,3.8-2.3,5.3-4c3.4-3.8,5.6-8.2,6.3-13.2
			c0.5-3-0.1-5.5-1.9-8.1c-5.1-7.3-10.2-14.7-14.6-22.5c-8.7-15.5-16.4-31.5-21.1-48.7C366.9,557.2,366.8,556.5,366.2,556.2z
			 M1511.6,696.1c1.6,0,2.8-0.7,3.7-2c0.5-0.8,1.1-1.6,1.5-2.4c3.9-6.8,7.8-13.6,11.2-20.6c0.5-1,1-2,1.4-3c0.6-1.4,0.2-2.1-1.3-2.4
			c-3-0.7-6-1.1-8.9-2.1c-5.3-1.8-10.4-4.1-14.5-8.2c-2-2-2.9-2-4.6,0.3c-3.2,4.2-7.2,7.7-10.9,11.5c-2.3,2.4-4.7,4.8-7.1,7.1
			c-1.5,1.4-1.8,3-1,4.8c1.4,3.3,3.4,6.1,6.3,8.3c4.9,3.7,10.5,6,16.5,7.5C1506.5,695.5,1509.1,695.7,1511.6,696.1z"/>
		<path d="M1124.7,513.2c-0.4-23.8,5-45,15.2-64.9c5.2-10.1,11.8-19.3,19.2-28c9-10.4,19.5-18.9,31.1-26.1
			c15.1-9.5,31.5-15.5,49-18.6c11.8-2.1,23.6-2.4,35.4-1.7c15.9,0.9,31.4,4.1,46.3,9.8c12.3,4.7,23.7,11.2,34,19.4
			c12.4,9.9,22.2,22,29.7,36c8.1,15.3,12.9,31.6,15,48.8c1,8.3,1.9,16.5,1.7,24.8c-0.5,18.9-4.1,37.1-11.7,54.5
			c-4.8,10.9-10.9,21-18.2,30.3c-5.2,6.7-11,12.8-17.5,18.4c-8.5,7.4-17.8,13.5-27.7,18.9c-3.9,2.2-8,4-12.2,5.5
			c-12.3,4.6-24.9,8-38.1,9.2c-5.1,0.5-10.2,0.8-15.3,0.7c-11.4-0.3-22.6-1.9-33.6-4.8c-14.6-3.8-28-10.1-40.5-18.3
			c-6.2-4-12-8.6-17.3-13.7c-8.1-7.7-15.6-16-21.8-25.4c-11.1-17-18.3-35.5-21.4-55.5C1125,525.7,1124.4,518.9,1124.7,513.2z
			 M1264.1,382.4c-10.1-0.6-20.4,0.5-30.6,2.8c-14.5,3.4-27.9,9.1-40.5,17c-10.8,6.8-20.2,15.2-28.5,24.7
			c-7.5,8.6-13.6,18.1-18.6,28.4c-8.7,17.7-12.4,36.5-13.1,56.1c-0.1,1.4,0.2,2.9,0.3,4.3c0.1,1.6,0.4,3.2,0.4,4.8
			c-0.1,4.7,0.6,9.3,1.4,13.8c5.7,30.7,20.3,56.3,44.1,76.5c9.7,8.3,20.3,14.9,32,20c13.2,5.7,26.9,9.3,41.2,10.4
			c10,0.8,20.1,0.5,30.1-1c19.1-2.9,36.7-9.7,52.8-20.5c6.8-4.6,13-9.8,18.8-15.6c6-6,11.6-12.3,16.4-19.4
			c8.7-12.8,14.9-26.8,18.6-41.9c1.9-7.8,3.2-15.7,3.5-23.7c0.6-14.6-0.4-29.1-3.5-43.4c-2.9-13.2-7.5-25.8-14.4-37.4
			c-6.2-10.4-13.9-19.6-23.1-27.3c-13.8-11.6-29.7-19.3-47.1-23.9C1291.3,383.7,1278,381.7,1264.1,382.4z"/>
		<path d="M799.4,510.1c0.9,15.5-1.7,30.6-6.5,45.3c-4.9,15.2-12.4,29.1-22.4,41.6c-12.4,15.5-27.2,28.3-45,37.5
			c-14.2,7.3-29.2,12.2-45,14.4c-10.5,1.4-21,1.7-31.6,0.7c-16.8-1.6-32.7-6.1-47.8-13.3c-10.4-5-20.1-11.3-28.8-18.8
			c-3.1-2.7-6.4-5.3-9.3-8.3c-9.4-10.1-17.6-21-24.1-33.3c-6.6-12.6-11.1-25.9-13.5-39.8c-1.4-8-2.5-16.1-2.4-24.3
			c0.4-18.9,4-37.1,11.5-54.6c5.9-13.7,13.8-26,23.5-37.1c9.1-10.4,19.7-19.1,31.6-26.3c13.9-8.5,29-14.3,44.9-17.5
			c7.5-1.5,15.1-2.6,22.8-2.5c3.7,0,7.4,0,11,0c12.7,0.2,25.1,2.4,37.4,5.5c8.9,2.2,17.4,5.6,25.5,9.7c10.9,5.5,20.9,12.3,29.7,20.8
			c16.9,16.4,27.7,36.2,33.6,58.8c2.3,8.8,3.8,17.8,4.6,26.9C799.7,500.2,799.4,505.2,799.4,510.1z M661.9,382.4
			c-12.1-0.9-24.7,1.3-37.1,4.8c-7.4,2-14.6,4.9-21.4,8.4c-10.1,5.2-19.5,11.6-28.1,19.1c-7.9,6.9-14.6,14.8-20.6,23.3
			c-8.7,12.3-14.8,25.8-18.7,40.3c-2.4,8.7-3.8,17.5-4.2,26.5c-0.7,14.1,0.8,28.1,4.6,41.8c4,14.1,10,27.2,18.4,39.3
			c5.1,7.4,11.2,14,17.6,20.2c8.5,8.3,18.1,15.2,28.7,20.7c14.3,7.4,29.5,12.3,45.6,14c11.7,1.2,23.3,1.2,34.9-0.6
			c16.4-2.6,31.9-8,46.2-16.6c14.1-8.5,26.4-19.1,36.5-32.2c18.1-23.5,26.8-50.3,27.3-79.8c0.1-8-0.7-16-1.8-23.9
			c-2.5-17.8-7.5-34.7-17-50c-6.2-10-13.5-19-22.6-26.5c-14.2-11.7-30.3-19.6-48-24.2C689.2,383.5,676.1,381.8,661.9,382.4z"/>
		<path d="M964.6,193.1c22.7,0.7,44.2,9.1,61.8,26.8c17.4,17.6,25.5,39.1,26.4,63.5c-1,24.8-9.4,46.7-27.3,64.2
			c-17.5,17.1-38.8,25.4-63.2,26.1c-51.4-1.1-90-41.4-90-90.4C872.4,234.1,911.7,193.7,964.6,193.1z M881.1,283.1
			c-0.7,44.1,35.2,81.5,81,81.9c44.2,0.4,81.9-35.7,82-81.1c0.1-46.3-37.1-81.9-81.4-82C917.2,201.7,880.5,239.2,881.1,283.1z"/>
		<path d="M1412.8,151.9c-0.6,0-1.3,0-1.9,0c-13.1-0.2-26.2,1-39.2,2.7c-13.5,1.7-26.8,4.3-40,7.8c-16.4,4.4-32.4,9.9-47.5,17.9
			c-11.4,6-22,13-31,22.3c-6.7,7-12.2,14.8-15.4,24c-1.5,4.4-2.8,4.1-6.5,3.1c-2-0.6-2.6-1.5-2.1-3.6c0.9-4.1,2.7-7.9,4.7-11.5
			c3.4-6.4,7.8-12,12.9-17.2c9.5-9.9,20.6-17.6,32.8-23.9c10.8-5.6,21.9-10.5,33.5-14.3c18.3-6,37-10.2,56-12.8
			c8.1-1.1,16.2-1.8,24.3-2.4c9-0.7,17.9-0.8,26.8-0.6c15.1,0.3,30,2,44.6,5.5c6.1,1.5,11.9,3.6,17.5,6.5c3.5,1.8,6.5,4.2,8.8,7.2
			c4.4,5.6,4.4,11.8,2.2,18.2c-1.4,4.1-3.5,7.9-5.9,11.5c-3.4,5.3-7.3,10.1-11.2,14.9c-6.5,8.1-13.2,16.1-19.5,24.3
			c-7.6,9.9-14.5,20.3-19.8,31.6c-2.2,4.8-4.4,9.6-5.8,14.7c-0.2,0.8-0.5,1.5-0.8,2.3c-0.7,1.6-1.7,2.1-3.5,1.7
			c-4.9-1.2-5.3-1.7-3.8-6.5c3.6-11.2,8.6-21.7,15-31.5c7.1-11,15-21.5,23.4-31.6c5.9-7.1,11.6-14.5,17.2-21.9c3-3.9,5.5-8.2,7-13
			c1.5-5,0.3-9.1-3.8-12.3c-2.4-1.9-5.1-3.3-8-4.4c-8.7-3.3-17.7-5.3-27-6.6C1435.5,152.4,1424.2,151.6,1412.8,151.9z"/>
		<path d="M429.7,175.2c-0.2-8.1,3-13.4,8.5-17.4c4.3-3.1,9.1-5.5,14.1-7.1c10.2-3.4,20.7-5.3,31.4-6.6c14.4-1.7,28.7-1,43.1-0.8
			c6.7,0.1,13.4,1.1,20,2c12.8,1.7,25.6,3.9,38.1,7.2c20.3,5.3,40,12.4,58.4,22.6c8.4,4.7,16.1,10.3,23.6,16.4
			c7.7,6.3,13.7,13.8,19,22c2.8,4.3,4.9,9,6.3,13.9c0.8,2.9,0.3,3.7-2.5,4.7c-0.8,0.3-1.5,0.5-2.3,0.6c-1,0.2-1.9-0.1-2.4-1.1
			c-0.4-0.9-0.7-1.8-1.1-2.7c-3.7-9.3-8.9-17.6-16-24.8c-8.4-8.5-17.9-15.4-28.2-21.3c-15.6-9-32.4-15.2-49.6-20.2
			c-13.2-3.8-26.7-6.6-40.3-8.5c-8.7-1.2-17.4-2.2-26.2-2.5c-6.1-0.2-12.1-1-18.2-0.7c-14.9,0.7-29.7,1.6-44.1,5.7
			c-4.2,1.2-8.3,2.4-12.2,4.3c-1.3,0.6-2.6,1.3-3.8,2.1c-6.3,3.8-8.3,8.2-6,16.4c1.1,3.9,3.1,7.3,5.3,10.7
			c3.9,6.1,8.4,11.7,12.7,17.4c7.7,10,15.6,19.9,22.4,30.5c7.4,11.5,14,23.3,18.1,36.4c0.2,0.6,0.4,1.2,0.6,1.8
			c0.4,1.4,1.4,2.9,0.2,4.1c-1.5,1.6-3.7,1.8-5.8,1.6c-0.5,0-1.2-0.6-1.4-1.1c-0.5-1-0.9-2-1.3-3.1c-3.8-11.1-9-21.5-15.2-31.4
			c-7.6-12.1-16.4-23.3-25-34.5c-5.7-7.4-11.2-14.8-15.8-22.9C431.3,184.2,429.7,179,429.7,175.2z"/>
		<path d="M959.6,467.5c0-24.5,0-48.9,0-73.4c0-2.2,0.7-4.7-0.6-6.6c-1.5-2.1-4.1-1.3-6.3-1.6c-5.2-0.8-10.5-1.4-15.6-2.7
			c-15.1-3.8-28.7-10.6-40.8-20.5c-10.1-8.2-18-18.1-24.4-29.3c-7.3-12.7-11.2-26.4-12.8-40.9c-0.2-2.1-0.2-4.2-0.1-6.2
			c0-0.8,0.2-1.6,0.5-2.3c0.2-0.6,0.8-1,1.5-1c0.7,0,1.3,0.3,1.6,0.9c0.3,0.6,0.5,1.2,0.6,1.8c0.3,1.9,0.6,3.8,0.7,5.7
			c0.5,11.2,3.5,21.7,8,31.9c3.6,8.1,8.1,15.7,13.8,22.4c11.7,13.7,25.7,24.4,43,30.2c6.4,2.2,12.8,3.9,19.5,4.9
			c0.6,0.1,1.3,0.2,1.9,0.3c15.9,1,31.6,0,46.7-5.8c15.4-6,28.5-15.2,39.2-27.6c12.1-14,19.7-30.2,22.6-48.5c0.6-3.6,1.1-7.3,1-11
			c0-1.4-0.1-2.9,0.7-4.2c0.4-0.7,1.1-1.1,2-1.1c0.9,0,1.5,0.5,1.8,1.4c0.6,1.7,0.4,3.5,0.3,5.2c-1.1,10.5-3,20.9-6.8,30.8
			c-4.1,10.6-10,20-17,28.8c-7.4,9.3-16.5,16.4-26.5,22.6c-10.3,6.4-21.5,10.5-33.5,12.6c-4.6,0.8-9.2,1.3-13.8,1.9
			c-2.2,0.3-2.8,0.9-3,3c-0.1,1.8-0.1,3.5-0.1,5.3c0,48.9,0,97.9,0,146.8c0,1.8,0,3.5-0.2,5.3c0,0.6-0.4,1.2-0.7,1.7
			c-0.5,0.8-2,0.8-2.5,0c-0.3-0.5-0.6-1.1-0.7-1.7c-0.1-1.6-0.1-3.2-0.1-4.8C959.6,517.1,959.6,492.3,959.6,467.5z"/>
	</g>
</g>
</svg>
